<?xml version="1.0" encoding="UTF-8"?>
<svg xmlns="http://www.w3.org/2000/svg" viewBox="0 0 129.7 183.44">
  <defs>
    <style>
      .cls-1 {
        fill: none;
        stroke: #000;
        stroke-miterlimit: 10;
      }
    </style>
  </defs>
  <g id="Layer_1" data-name="Layer 1">
    <line class="cls-1" x1="41.57" y1="80.26" x2="68.81" y2="80.26"/>
    <line class="cls-1" x1="41.57" y1="80.26" x2="96.06" y2="80.26"/>
  </g>
  <g id="Layer_3" data-name="Layer 3">
    <polygon points="68.94 128.75 68.94 128.75 68.94 128.75 68.94 128.75"/>
    <polygon points="68.94 128.75 68.94 128.75 68.94 128.75 68.94 128.75"/>
  </g>
  <g id="END_FORM1">
    <path d="M104.04,92.17c-.22-2.45.23-13.73-10.07-15.7-5.49-1.05-11.23,4.34-25.02,3.79-.05,0-.09,0-.14,0s-.09,0-.14,0c-13.78.55-19.53-4.84-25.02-3.79-10.3,1.97-9.85,13.25-10.07,15.7-.95,10.44,4.88,20.81,4.88,20.81,5.44,16.42,13.54,23.83,20.6,39.08.49,1.06,1.82,1.12,3.06,1.08,3.21-.11,3.63-3.18,6.68-3.18s3.47,3.07,6.68,3.18c1.25.04,2.58-.02,3.06-1.08,7.06-15.25,15.17-22.66,20.6-39.08,0,0,5.82-10.37,4.88-20.81Z"/>
  </g>
</svg>